<svg data-v-423bf9ae="" xmlns="http://www.w3.org/2000/svg" viewBox="0 0 220.61160949206297 184" class="iconAboveSlogan"><!----><!----><!----><g data-v-423bf9ae="" id="77f0d927-c483-4e46-886e-d5ae44c6f559" fill="#00171f" transform="matrix(6.116207689453325,0,0,6.116207689453325,-4.281341809602225,88.01528776975431)"><path d="M0.70 10.23L0.70 10.23L0.70 9.32L0.70 9.32Q0.70 9.10 0.92 9.10L0.92 9.10L2.34 9.10L2.34 9.10Q2.56 9.10 2.56 9.32L2.56 9.32L2.56 9.91L2.56 9.91Q2.56 10.47 3.12 10.47L3.12 10.47L3.88 10.47L3.88 10.47Q4.44 10.47 4.44 9.91L4.44 9.91L4.44 8.50L1.08 7.40L1.08 7.40Q0.70 7.28 0.70 6.89L0.70 6.89L0.70 4.46L0.70 4.46Q0.70 3.48 1.22 2.96L1.22 2.96L1.22 2.96Q1.74 2.45 2.71 2.45L2.71 2.45L4.29 2.45L4.29 2.45Q5.28 2.45 5.79 2.96L5.79 2.96L5.79 2.96Q6.30 3.47 6.30 4.46L6.30 4.46L6.30 5.39L6.30 5.39Q6.30 5.61 6.08 5.61L6.08 5.61L4.66 5.61L4.66 5.61Q4.56 5.61 4.50 5.55L4.50 5.55L4.50 5.55Q4.44 5.49 4.44 5.39L4.44 5.39L4.44 4.80L4.44 4.80Q4.44 4.25 3.88 4.25L3.88 4.25L3.11 4.25L3.11 4.25Q2.84 4.25 2.70 4.39L2.70 4.39L2.70 4.39Q2.55 4.53 2.55 4.80L2.55 4.80L2.55 6.00L5.93 7.08L5.93 7.08Q6.30 7.21 6.30 7.60L6.30 7.60L6.30 10.23L6.30 10.23Q6.30 11.22 5.79 11.74L5.79 11.74L5.79 11.74Q5.28 12.25 4.29 12.25L4.29 12.25L2.71 12.25L2.71 12.25Q1.74 12.25 1.22 11.73L1.22 11.73L1.22 11.73Q0.70 11.22 0.70 10.23ZM7.70 12.02L7.70 12.02L7.70 2.67L7.70 2.67Q7.70 2.57 7.76 2.51L7.76 2.51L7.76 2.51Q7.82 2.45 7.92 2.45L7.92 2.45L11.29 2.45L11.29 2.45Q12.28 2.45 12.79 2.96L12.79 2.96L12.79 2.96Q13.30 3.47 13.30 4.46L13.30 4.46L13.30 7.21L13.30 7.21Q13.30 8.19 12.79 8.71L12.79 8.71L12.79 8.71Q12.28 9.22 11.29 9.23L11.29 9.23L9.52 9.24L9.52 12.04L9.52 12.04Q9.52 12.26 9.30 12.26L9.30 12.26L7.92 12.25L7.92 12.25Q7.82 12.25 7.76 12.19L7.76 12.19L7.76 12.19Q7.70 12.13 7.70 12.02ZM9.52 4.27L9.52 7.43L10.92 7.42L10.92 7.42Q11.48 7.42 11.48 6.86L11.48 6.86L11.48 4.82L11.48 4.82Q11.48 4.26 10.92 4.26L10.92 4.26L9.52 4.27ZM14.56 10.23L14.56 10.23L14.56 4.46L14.56 4.46Q14.56 3.47 15.07 2.96L15.07 2.96L15.07 2.96Q15.59 2.45 16.58 2.45L16.58 2.45L18.15 2.45L18.15 2.45Q19.14 2.45 19.65 2.96L19.65 2.96L19.65 2.96Q20.17 3.47 20.17 4.46L20.17 4.46L20.17 10.23L20.17 10.23Q20.17 11.22 19.65 11.74L19.65 11.74L19.65 11.74Q19.14 12.25 18.15 12.25L18.15 12.25L16.58 12.25L16.58 12.25Q15.59 12.25 15.07 11.74L15.07 11.74L15.07 11.74Q14.56 11.22 14.56 10.23ZM16.39 4.82L16.39 9.88L16.39 9.88Q16.39 10.45 16.95 10.45L16.95 10.45L17.84 10.45L17.84 10.45Q18.40 10.45 18.40 9.88L18.40 9.88L18.40 4.82L18.40 4.82Q18.40 4.26 17.84 4.26L17.84 4.26L16.95 4.26L16.95 4.26Q16.39 4.26 16.39 4.82L16.39 4.82ZM21.56 12.02L21.56 12.02L21.56 2.67L21.56 2.67Q21.56 2.57 21.62 2.51L21.62 2.51L21.62 2.51Q21.68 2.45 21.79 2.45L21.79 2.45L25.15 2.45L25.15 2.45Q26.14 2.45 26.65 2.96L26.65 2.96L26.65 2.96Q27.17 3.47 27.17 4.46L27.17 4.46L27.17 7.28L27.17 7.28Q27.17 8.50 26.38 8.99L26.38 8.99L27.10 12.00L27.10 12.00Q27.17 12.25 26.91 12.25L26.91 12.25L25.54 12.25L25.54 12.25Q25.34 12.25 25.30 12.05L25.30 12.05L24.63 9.30L23.39 9.30L23.39 12.02L23.39 12.02Q23.39 12.13 23.32 12.19L23.32 12.19L23.32 12.19Q23.26 12.25 23.16 12.25L23.16 12.25L21.79 12.25L21.79 12.25Q21.68 12.25 21.62 12.19L21.62 12.19L21.62 12.19Q21.56 12.13 21.56 12.02ZM23.39 4.26L23.39 7.49L24.78 7.49L24.78 7.49Q25.34 7.49 25.34 6.93L25.34 6.93L25.34 4.82L25.34 4.82Q25.34 4.26 24.78 4.26L24.78 4.26L23.39 4.26ZM28.28 2.67L28.28 4.07L28.28 4.07Q28.28 4.18 28.34 4.24L28.34 4.24L28.34 4.24Q28.40 4.30 28.51 4.30L28.51 4.30L30.13 4.30L30.13 12.02L30.13 12.02Q30.13 12.25 30.36 12.25L30.36 12.25L31.81 12.25L31.81 12.25Q32.03 12.25 32.03 12.02L32.03 12.02L32.03 4.30L33.66 4.30L33.66 4.30Q33.89 4.30 33.89 4.07L33.89 4.07L33.89 2.67L33.89 2.67Q33.89 2.45 33.66 2.45L33.66 2.45L28.51 2.45L28.51 2.45Q28.40 2.45 28.34 2.51L28.34 2.51L28.34 2.51Q28.28 2.57 28.28 2.67L28.28 2.67ZM34.86 2.67L34.86 12.02L34.86 12.02Q34.86 12.25 35.09 12.25L35.09 12.25L36.54 12.25L36.54 12.25Q36.65 12.25 36.71 12.19L36.71 12.19L36.71 12.19Q36.77 12.13 36.77 12.02L36.77 12.02L36.77 2.67L36.77 2.67Q36.77 2.57 36.71 2.51L36.71 2.51L36.71 2.51Q36.65 2.45 36.54 2.45L36.54 2.45L35.09 2.45L35.09 2.45Q34.86 2.45 34.86 2.67L34.86 2.67Z"></path></g><defs data-v-423bf9ae=""><linearGradient data-v-423bf9ae="" gradientTransform="rotate(25)" id="7dfd45b0-7c9c-4e7c-8790-b78af3fff125" x1="0%" y1="0%" x2="100%" y2="0%"><stop data-v-423bf9ae="" offset="0%" style="stop-color: rgb(0, 168, 232); stop-opacity: 1;"></stop><stop data-v-423bf9ae="" offset="100%" style="stop-color: rgb(255, 101, 0); stop-opacity: 1;"></stop></linearGradient></defs><g data-v-423bf9ae="" id="7dd4c739-0810-4fa8-9d39-2a4eb2a97021" transform="matrix(1.875,0,0,1.875,62.25,-3.75)" stroke="none" fill="url(#7dfd45b0-7c9c-4e7c-8790-b78af3fff125)"><path d="M26 32c-4.1 0-8.29.395-12 1.16V13.68L25.69 9 14 4.33V2h-2v31.62C6.199 35.11 2 37.6 2 41c0 5.85 12.37 9 24 9 11.64 0 24-3.15 24-9 0-5.84-12.36-9-24-9zm-15 9.5c0-.843.382-1.598 1-2.196v4.392c-.618-.598-1-1.353-1-2.196zm4.5 3.5c-.531 0-1.03-.082-1.5-.208v-6.584c.47-.126.969-.208 1.5-.208 2.53 0 4.5 1.54 4.5 3.5S18.03 45 15.5 45z"></path></g><!----><g data-v-423bf9ae="" id="0b4d1039-b7c3-441b-b5cd-862bfa1f5839" fill="rgb(255,101,0)" transform="matrix(0.8454711788411879,0,0,0.8454711788411879,28.445264007649,201.73548412341063)"><path d="M6.97 6.75C7.63 6.45 8.22 5.85 8.22 4.66C8.22 3.54 7.48 2.21 5.29 2.21L1.13 2.21L1.13 11.48L5.53 11.48C7.64 11.48 8.69 10.43 8.69 9.04C8.69 7.66 7.76 7 6.97 6.75ZM2.18 3.21L5.40 3.21C6.68 3.21 7.17 3.98 7.17 4.75C7.17 5.88 6.26 6.36 5.29 6.36L2.18 6.36ZM5.64 10.49L2.18 10.49L2.18 7.31L5.53 7.31C7 7.31 7.64 8.09 7.64 8.96C7.64 9.93 6.92 10.49 5.64 10.49ZM20.83 7.81L24.71 2.21L23.44 2.21L20.30 6.72L17.16 2.21L15.89 2.21L19.78 7.81L19.78 11.48L20.83 11.48ZM48.66 6.75C49.32 6.45 49.91 5.85 49.91 4.66C49.91 3.54 49.17 2.21 46.98 2.21L42.83 2.21L42.83 11.48L47.22 11.48C49.34 11.48 50.39 10.43 50.39 9.04C50.39 7.66 49.45 7 48.66 6.75ZM43.88 3.21L47.10 3.21C48.37 3.21 48.86 3.98 48.86 4.75C48.86 5.88 47.95 6.36 46.98 6.36L43.88 6.36ZM47.33 10.49L43.88 10.49L43.88 7.31L47.22 7.31C48.69 7.31 49.34 8.09 49.34 8.96C49.34 9.93 48.61 10.49 47.33 10.49ZM59.09 2.21L59.09 11.48L65.20 11.48L65.20 10.47L60.14 10.47L60.14 2.21ZM79.80 2.21L79.80 7.52C79.80 9.67 78.37 10.57 76.90 10.57C75.43 10.57 74.02 9.67 74.02 7.52L74.02 2.21L72.97 2.21L72.97 7.49C72.97 9.95 74.59 11.59 76.90 11.59C79.23 11.59 80.85 9.94 80.85 7.49L80.85 2.21ZM96.82 3.22L96.82 2.21L90.01 2.21L90.01 11.48L96.82 11.48L96.82 10.47L91.06 10.47L91.06 7.35L96.21 7.35L96.21 6.33L91.06 6.33L91.06 3.22ZM116.12 4.65C116.12 4.03 116.48 3.08 118.58 3.08C120.27 3.08 121.06 3.82 121.17 4.75L122.25 4.75C122.16 3.36 121.04 2.10 118.58 2.10C116.26 2.10 115.09 3.15 115.09 4.66C115.09 7.84 121.44 6.69 121.44 8.96C121.44 10.05 120.46 10.60 118.89 10.60C117.28 10.60 115.98 10.05 115.91 8.71L114.81 8.71C114.95 10.37 116.07 11.59 118.82 11.59C121.10 11.59 122.49 10.64 122.49 8.92C122.49 5.68 116.12 6.80 116.12 4.65ZM135.09 10.57C132.83 10.57 131.57 8.93 131.57 6.85C131.57 4.76 132.83 3.12 135.09 3.12C136.61 3.12 137.62 3.85 138.10 4.98L139.20 4.98C138.61 3.29 137.10 2.10 135.00 2.10C132.22 2.10 130.52 4.21 130.52 6.85C130.52 9.48 132.22 11.59 135.00 11.59C137.10 11.59 138.61 10.40 139.20 8.71L138.10 8.71C137.62 9.84 136.61 10.57 135.09 10.57ZM148.82 7.92L152.04 7.92L154.28 11.48L155.53 11.48L153.09 7.74C154.13 7.50 155.33 6.90 155.33 5.11C155.33 3.35 154.11 2.21 152.21 2.21L147.77 2.21L147.77 11.48L148.82 11.48ZM148.82 3.21L152.08 3.21C153.40 3.21 154.28 3.93 154.28 5.11C154.28 6.55 153.02 6.93 152.03 6.93L148.82 6.93ZM165.19 2.21L164.14 2.21L164.14 11.48L165.19 11.48ZM175.50 8.18L178.63 8.18C180.60 8.18 181.82 7.03 181.82 5.19C181.82 3.37 180.60 2.21 178.63 2.21L174.45 2.21L174.45 11.48L175.50 11.48ZM178.56 3.21C180.01 3.21 180.77 3.96 180.77 5.19C180.77 6.44 180.01 7.20 178.56 7.20L175.50 7.20L175.50 3.21ZM196.83 2.21L189.31 2.21L189.31 3.22L192.54 3.22L192.54 11.48L193.59 11.48L193.59 3.22L196.83 3.22Z"></path></g></svg>