<svg data-v-423bf9ae="" xmlns="http://www.w3.org/2000/svg" viewBox="0 0 417 90" class="iconLeft"><!----><!----><!----><g data-v-423bf9ae="" id="c5c85ce5-84ee-4370-8a0f-b931050e4542" fill="#041F57" transform="matrix(4.8,0,0,4.8,101.99495494365692,-19.12800111770629)"><path d="M4.68 9.97Q5.71 9.97 6.27 10.30Q6.83 10.63 7.07 11.42Q7.31 12.21 7.31 13.68L7.31 13.68Q7.31 15.13 7.04 15.91Q6.78 16.69 6.15 17.01Q5.52 17.33 4.33 17.33L4.33 17.33Q3.42 17.33 2.68 17.23Q1.95 17.12 1.13 16.87L1.13 16.87L1.13 7.91L2.86 7.74L2.86 10.28Q3.46 9.97 4.68 9.97L4.68 9.97ZM5.49 15.67L5.49 11.34L3.47 11.34Q3.11 11.34 2.98 11.41Q2.86 11.48 2.86 11.69L2.86 11.69L2.86 15.97L4.86 15.97Q5.21 15.97 5.35 15.90Q5.49 15.83 5.49 15.67L5.49 15.67ZM10.85 15.92Q11.13 15.97 11.51 16.00L11.51 16.00L11.41 17.16Q10.78 17.33 10.35 17.33L10.35 17.33Q9.73 17.33 9.43 17.05Q9.13 16.77 9.13 16.17L9.13 16.17L9.13 8.08L10.85 7.87L10.85 15.92ZM18.97 10.18L18.97 17.18L18.14 17.18L17.70 16.48Q16.58 17.33 14.94 17.33L14.94 17.33Q13.94 17.33 13.49 16.95Q13.03 16.56 13.03 15.74L13.03 15.74L13.03 10.18L14.76 10.18L14.76 16.07L16.20 16.07Q16.80 16.07 17.02 15.92Q17.25 15.76 17.25 15.36L17.25 15.36L17.25 10.18L18.97 10.18ZM24.04 16.02Q24.61 16.02 25.17 15.93Q25.73 15.85 26.47 15.67L26.47 15.67L26.68 16.90Q26.12 17.11 25.36 17.22Q24.60 17.33 23.77 17.33L23.77 17.33Q22.64 17.33 22.01 17.00Q21.38 16.66 21.11 15.88Q20.83 15.11 20.83 13.68L20.83 13.68Q20.83 12.29 21.13 11.51Q21.43 10.72 22.11 10.37Q22.78 10.02 23.95 10.02L23.95 10.02Q25.12 10.02 25.74 10.21Q26.36 10.40 26.61 10.86Q26.87 11.33 26.87 12.18L26.87 12.18Q26.87 13.16 26.55 13.62Q26.24 14.08 25.37 14.26Q24.50 14.43 22.65 14.43L22.65 14.43L22.65 15.88Q23.17 16.02 24.04 16.02L24.04 16.02ZM23.77 11.37Q23.13 11.37 22.89 11.53Q22.65 11.69 22.65 12.12L22.65 12.12L22.65 13.41L24.19 13.41Q24.84 13.41 25.08 13.25Q25.33 13.09 25.33 12.64L25.33 12.64L25.33 11.37L23.77 11.37ZM31.81 12.12Q31.81 11.02 32.48 10.49Q33.15 9.97 34.57 9.97L34.57 9.97Q35.90 9.97 37.04 10.28L37.04 10.28L36.82 11.51Q36.05 11.30 35.13 11.30L35.13 11.30Q34.33 11.30 33.63 11.42L33.63 11.42L33.63 12.81Q35.21 13.02 36.00 13.27Q36.79 13.52 37.09 13.95Q37.39 14.38 37.39 15.16L37.39 15.16Q37.39 16.37 36.69 16.88Q35.98 17.39 34.33 17.39L34.33 17.39Q33.01 17.39 31.67 16.97L31.67 16.97L31.92 15.64Q32.97 16.06 34.20 16.06L34.20 16.06Q34.86 16.06 35.57 15.89L35.57 15.89L35.57 14.49Q33.88 14.27 33.11 14.03Q32.34 13.79 32.07 13.38Q31.81 12.96 31.81 12.12L31.81 12.12ZM41.38 17.33Q40.33 17.33 39.76 17.00Q39.19 16.67 38.95 15.90Q38.71 15.12 38.71 13.68L38.71 13.68Q38.71 12.24 38.95 11.45Q39.19 10.67 39.76 10.35Q40.33 10.02 41.38 10.02L41.38 10.02Q41.96 10.02 42.61 10.10Q43.26 10.18 43.68 10.29L43.68 10.29L43.50 11.55Q42.57 11.34 41.68 11.34L41.68 11.34Q41.03 11.34 40.78 11.60Q40.53 11.86 40.53 12.49L40.53 12.49L40.53 15.88Q40.96 16.02 41.79 16.02L41.79 16.02Q42.24 16.02 42.67 15.94Q43.09 15.86 43.67 15.67L43.67 15.67L43.83 16.90Q42.80 17.33 41.38 17.33L41.38 17.33ZM46.26 10.18L46.82 11.24Q47.39 10.71 47.85 10.41Q48.31 10.11 48.76 9.97L48.76 9.97L48.92 11.65Q48.48 11.77 47.97 12.01Q47.46 12.24 47.15 12.47L47.15 12.47L47.15 17.18L45.43 17.18L45.43 10.18L46.26 10.18ZM50.08 17.18L50.08 17.18ZM50.22 10.33L51.94 10.09L51.94 17.18L50.22 17.18L50.22 10.33ZM51.09 9.10Q50.50 9.10 50.29 8.90Q50.08 8.69 50.08 8.12L50.08 8.12Q50.08 7.53 50.30 7.32Q50.51 7.11 51.09 7.11L51.09 7.11Q51.66 7.11 51.86 7.32Q52.07 7.53 52.07 8.12L52.07 8.12Q52.07 8.69 51.87 8.90Q51.67 9.10 51.09 9.10L51.09 9.10ZM57.75 10.02Q58.80 10.02 59.36 10.35Q59.92 10.67 60.15 11.45Q60.38 12.22 60.38 13.68L60.38 13.68Q60.38 15.15 60.14 15.94Q59.91 16.73 59.35 17.06Q58.79 17.39 57.75 17.39L57.75 17.39Q56.53 17.39 55.93 17.08L55.93 17.08L55.93 19.45L54.21 19.61L54.21 10.18L55.02 10.18L55.38 10.79Q55.71 10.36 56.26 10.19Q56.81 10.02 57.75 10.02L57.75 10.02ZM58.56 15.67L58.56 11.38L56.55 11.38Q56.20 11.38 56.06 11.45Q55.93 11.52 55.93 11.69L55.93 11.69L55.93 16.02L57.93 16.02Q58.30 16.02 58.43 15.95Q58.56 15.88 58.56 15.67L58.56 15.67ZM65.55 11.34L64.36 11.34L64.36 15.92Q64.78 15.99 65.31 16.00L65.31 16.00L65.23 17.16Q64.43 17.33 63.85 17.33L63.85 17.33Q63.24 17.33 62.94 17.05Q62.64 16.77 62.64 16.17L62.64 16.17L62.64 11.34L61.73 11.34L61.73 10.18L62.64 10.18L62.64 8.76L64.36 8.33L64.36 10.18L65.55 10.18L65.55 11.34Z"></path></g><defs data-v-423bf9ae=""><linearGradient data-v-423bf9ae="" gradientTransform="rotate(25)" id="5a21f318-7a26-4917-9997-0cab876e1635" x1="0%" y1="0%" x2="100%" y2="0%"><stop data-v-423bf9ae="" offset="0%" style="stop-color: rgb(0, 21, 214); stop-opacity: 1;"></stop><stop data-v-423bf9ae="" offset="100%" style="stop-color: rgb(9, 137, 251); stop-opacity: 1;"></stop></linearGradient></defs><g data-v-423bf9ae="" id="186b222a-3521-424c-ad7c-258e2a9d68b1" transform="matrix(1.2499805294526598,0,0,1.2499805294526598,-18.467204263883787,-17.499727889137255)" stroke="none" fill="url(#5a21f318-7a26-4917-9997-0cab876e1635)"><path d="M15.06 47.73c-.722 18.229 12.647 33.732 30.393 36.044-15.521-2.206-27.158-15.849-26.518-31.854.088-2.31.198-4.694.74-6.859.012.006.022 0 .031.006 3.123-14.399 16.189-24.923 31.427-24.322C68.2 21.431 81.481 35.813 80.8 52.884c-.461 11.616-7.29 21.428-16.974 26.327-1.018-1.727-3.355-3.098-6.169-.888-3.305 2.598-6.355 4.528-5.536 6.469.813 1.934 4.324 1.099 8.49.55 3.266-.442 4.068-2.701 3.771-4.566 11.671-5.271 20.017-16.747 20.558-30.423.77-19.292-14.247-35.557-33.544-36.325-17.708-.703-32.792 11.912-35.757 28.904h-.016c-.057.311-.095.633-.145.949-.05.334-.127.668-.166 1.008h.016c-.124.94-.225 1.878-.268 2.841zm43.126 31.024c.363-.426.84-.716 1.345-.842a2.565 2.565 0 01-.602 1.468c-.365.438-.84.715-1.347.842a2.557 2.557 0 01.604-1.468zm2.485 5.908a2.537 2.537 0 01-1.47-.598 2.592 2.592 0 013.009.227 2.64 2.64 0 01-1.539.371z"></path></g><!----></svg>